<?xml version="1.0" encoding="UTF-8" ?>
<!DOCTYPE svg PUBLIC "-//W3C//DTD SVG 1.1//EN" "http://www.w3.org/Graphics/SVG/1.1/DTD/svg11.dtd">
<svg width="195pt" height="195pt" viewBox="0 0 195 195" version="1.1" xmlns="http://www.w3.org/2000/svg">
<path fill="#efefef" d=" M 0.00 0.00 L 195.00 0.00 L 195.00 195.00 L 0.00 195.00 L 0.00 0.00 Z" />
<path fill="#040404" d=" M 135.54 49.60 C 142.84 44.51 149.84 39.01 157.20 34.01 C 158.50 35.08 159.36 36.51 160.15 37.98 C 159.49 39.95 160.13 41.97 160.52 43.93 C 148.22 49.63 137.50 58.00 126.56 65.86 C 132.15 71.11 139.68 73.03 146.46 76.17 C 151.57 77.52 156.84 78.33 161.82 80.13 C 162.53 80.16 163.96 80.23 164.67 80.26 C 165.01 81.64 165.33 83.02 165.63 84.40 C 160.77 85.47 156.26 83.10 151.52 82.60 C 154.14 84.37 159.19 84.41 158.80 88.61 C 159.25 88.74 160.13 89.02 160.58 89.16 C 157.78 92.08 152.91 92.57 149.72 89.98 C 142.02 84.79 132.84 82.90 124.39 79.34 C 119.39 77.79 114.35 75.79 110.55 72.05 C 110.85 70.31 110.26 68.06 112.00 66.94 C 119.46 60.65 127.95 55.74 135.54 49.60 Z" />
<path fill="#040404" d=" M 20.19 52.18 C 23.16 48.02 28.17 46.10 32.90 44.72 C 46.06 42.73 57.23 56.35 55.89 68.84 C 55.57 70.91 54.69 72.85 53.51 74.57 C 53.84 78.27 52.11 81.55 50.35 84.65 C 46.55 85.93 42.65 86.99 39.24 89.18 C 35.77 88.90 32.08 89.32 28.88 87.67 C 24.22 85.54 19.41 82.74 16.99 78.01 C 12.58 69.85 14.57 59.25 20.19 52.18 Z" />
<path fill="#040404" d=" M 3.12 106.88 C 6.71 103.04 10.43 99.10 15.13 96.61 C 17.40 95.89 18.51 98.19 19.39 99.82 C 21.15 103.16 20.44 107.08 20.78 110.70 C 24.91 107.45 28.84 103.55 34.21 102.49 C 38.52 103.84 40.36 108.10 41.86 111.97 C 42.73 111.82 44.48 111.52 45.35 111.37 C 45.81 113.09 46.22 114.83 46.64 116.57 C 44.80 119.45 41.31 119.08 38.81 117.29 C 36.75 114.62 36.22 111.13 34.46 108.27 C 29.75 110.74 26.44 115.19 21.58 117.41 C 19.74 118.62 17.86 116.91 16.37 115.94 C 14.54 112.31 14.90 108.04 14.51 104.09 C 12.13 106.25 10.25 108.85 8.41 111.46 C 6.88 112.49 5.35 110.64 3.94 110.15 C 3.74 109.33 3.33 107.70 3.12 106.88 Z" />
<path fill="#040404" d=" M 187.18 107.25 C 189.06 103.64 190.06 99.25 193.44 96.67 C 194.97 103.19 192.27 109.35 189.29 114.97 C 183.40 115.55 181.26 108.65 175.97 107.44 C 171.73 105.40 167.63 108.36 164.61 111.12 C 163.43 112.49 161.78 111.02 160.48 110.71 C 161.97 112.01 163.24 113.56 163.34 115.63 L 162.59 114.62 C 160.87 116.21 159.08 117.73 157.46 119.42 C 155.96 119.11 154.46 118.76 152.98 118.40 C 151.30 114.33 149.96 110.13 148.10 106.14 C 145.06 108.70 142.42 111.67 139.53 114.39 C 138.16 113.75 136.79 113.12 135.41 112.51 C 135.17 111.85 134.71 110.53 134.48 109.86 C 138.61 105.96 142.66 100.26 148.85 100.12 C 153.64 101.73 154.68 107.30 156.26 111.47 C 160.07 107.10 164.17 102.63 170.15 101.46 C 170.54 102.21 171.31 103.71 171.69 104.45 C 171.55 103.76 171.25 102.36 171.10 101.66 C 178.19 100.87 183.25 106.35 189.17 109.12 C 188.67 108.65 187.68 107.72 187.18 107.25 Z" />
<path fill="#040404" d=" M 100.29 113.96 C 107.62 113.95 115.00 111.71 122.19 113.90 C 123.57 115.44 124.82 117.12 125.52 119.09 C 126.16 129.00 124.09 138.81 121.11 148.21 C 118.98 157.66 111.80 165.38 102.95 169.03 C 95.31 171.71 87.26 169.44 79.88 167.08 C 74.27 164.81 69.48 160.18 67.41 154.44 C 63.24 144.48 62.33 133.59 61.45 122.95 C 61.15 119.79 64.45 118.06 65.96 115.65 C 77.30 116.52 88.53 114.38 99.84 114.12 C 99.86 115.03 99.89 116.84 99.91 117.74 C 100.06 116.48 100.18 115.22 100.29 113.96 Z" />
<path fill="#efefef" d=" M 89.89 121.09 C 99.44 120.12 109.05 119.46 118.65 119.09 C 118.92 129.22 117.12 139.42 113.51 148.89 C 112.13 151.90 110.88 155.18 108.32 157.41 C 101.24 162.67 91.68 163.23 83.50 160.49 C 80.46 159.42 78.74 156.54 76.68 154.27 C 73.26 150.75 72.80 145.62 71.50 141.12 C 69.75 135.13 70.71 128.76 69.24 122.71 C 76.13 122.32 83.02 121.86 89.89 121.09 Z" />
</svg>
